<svg width="22" height="22" viewBox="0 0 22 22" fill="none" xmlns="http://www.w3.org/2000/svg">
<path d="M0 22C0 19.8783 0.842855 17.8434 2.34315 16.3431C3.84344 14.8429 5.87827 14 8 14C10.1217 14 12.1566 14.8429 13.6569 16.3431C15.1571 17.8434 16 19.8783 16 22H14C14 20.4087 13.3679 18.8826 12.2426 17.7574C11.1174 16.6321 9.5913 16 8 16C6.4087 16 4.88258 16.6321 3.75736 17.7574C2.63214 18.8826 2 20.4087 2 22H0ZM8 13C4.685 13 2 10.315 2 7C2 3.685 4.685 0.999997 8 0.999997C11.315 0.999997 14 3.685 14 7C14 10.315 11.315 13 8 13ZM8 11C10.21 11 12 9.21 12 7C12 4.79 10.21 3 8 3C5.79 3 4 4.79 4 7C4 9.21 5.79 11 8 11ZM20.548 0.783997C21.5062 2.71582 22.0032 4.84359 22 7C22 9.233 21.477 11.344 20.548 13.216L18.903 12.02C19.6282 10.446 20.0025 8.73306 20 7C20.0024 5.26695 19.6281 3.55409 18.903 1.98L20.548 0.783997ZM17.246 3.184C17.7454 4.39416 18.0016 5.69083 18 7C18.0016 8.30916 17.7454 9.60584 17.246 10.816L15.569 9.596C15.8552 8.76043 16.0008 7.8832 16 7C16.0011 6.11685 15.8558 5.23962 15.57 4.404L17.246 3.184Z" fill="white"/>
</svg>
